<svg width="16" height="10" xmlns="http://www.w3.org/2000/svg">

 <g stroke="null">
  <title>background</title>
  <rect fill="#fff" id="canvas_background" height="2.590319" width="2.94451" y="-1" x="-1" stroke="null"/>
  <g display="none" id="canvasGrid" stroke="null">
   <rect fill="url(#gridpattern)" stroke-width="0" y="3289.5835" x="4762.0835" height="400" width="580" id="svg_1" stroke="null"/>
  </g>
 </g>
 <g stroke="null">
  <title>Layer 1</title>
  <g id="svg_57" stroke="null">
   <path id="svg_49" fill-rule="evenodd" fill="#121313" d="m4756.30481,3349.30682c0,-1.54309 -0.77535,-3.01682 -2.06524,-4.12646l-69.77422,-57.78771c-2.75601,-2.28284 -7.21778,-2.27706 -9.96674,0c-2.75601,2.27706 -2.75601,5.97585 0,8.25291l57.74929,47.82411l-194.45009,0c-3.89083,0 -7.04861,2.61227 -7.04861,5.83714s3.15778,5.83714 7.04861,5.83714l194.44304,0l-57.74224,47.82411c-2.75601,2.27706 -2.74896,5.97585 0,8.25291c2.75601,2.27706 7.21778,2.27706 9.96674,0l69.77422,-57.78771c1.31809,-1.0923 2.0441,-2.59493 2.06524,-4.12646l0,0.00002z" clip-rule="evenodd" stroke="null"/>
   <g transform="matrix(7.048613152136624,0,0,5.7793487402454335,2662.7084325243222,2205.5450448773863) " id="svg_51" stroke="null"/>
   <g transform="matrix(7.048613152136624,0,0,5.7793487402454335,2662.7084325243222,2205.5450448773863) " id="svg_52" stroke="null"/>
   <g transform="matrix(7.048613152136624,0,0,5.7793487402454335,2662.7084325243222,2205.5450448773863) " id="svg_53" stroke="null"/>
   <g transform="matrix(7.048613152136624,0,0,5.7793487402454335,2662.7084325243222,2205.5450448773863) " id="svg_54" stroke="null"/>
   <g transform="matrix(7.048613152136624,0,0,5.7793487402454335,2662.7084325243222,2205.5450448773863) " id="svg_55" stroke="null"/>
   <g transform="matrix(7.048613152136624,0,0,5.7793487402454335,2662.7084325243222,2205.5450448773863) " id="svg_56" stroke="null"/>
  </g>
  <g id="svg_36" stroke="null">
   <path clip-rule="evenodd" d="m15.90291,4.93043c0,-0.11943 -0.05413,-0.23349 -0.14418,-0.31937l-4.87117,-4.47252c-0.19241,-0.17668 -0.5039,-0.17624 -0.69581,0c-0.19241,0.17624 -0.19241,0.46251 0,0.63874l4.03167,3.70138l-13.5752,0c-0.27163,0 -0.49209,0.20218 -0.49209,0.45177s0.22045,0.45177 0.49209,0.45177l13.57471,0l-4.03118,3.70138c-0.19241,0.17624 -0.19191,0.46251 0,0.63874c0.19241,0.17624 0.5039,0.17624 0.69581,0l4.87117,-4.47252c0.09202,-0.08454 0.14271,-0.20084 0.14418,-0.31937z" fill="#273aa7" fill-rule="evenodd" id="svg_28" stroke="null"/>
   <g id="svg_30" transform="matrix(0.492086879919697,0,0,0.44729718335242197,-1.09989292267466,0.9675697824098889) " stroke="null"/>
   <g id="svg_31" transform="matrix(0.492086879919697,0,0,0.44729718335242197,-1.09989292267466,0.9675697824098889) " stroke="null"/>
   <g id="svg_32" transform="matrix(0.492086879919697,0,0,0.44729718335242197,-1.09989292267466,0.9675697824098889) " stroke="null"/>
   <g id="svg_33" transform="matrix(0.492086879919697,0,0,0.44729718335242197,-1.09989292267466,0.9675697824098889) " stroke="null"/>
   <g id="svg_34" transform="matrix(0.492086879919697,0,0,0.44729718335242197,-1.09989292267466,0.9675697824098889) " stroke="null"/>
   <g id="svg_35" transform="matrix(0.492086879919697,0,0,0.44729718335242197,-1.09989292267466,0.9675697824098889) " stroke="null"/>
  </g>
 </g>
</svg>