<svg width="74" height="31" viewBox="0 0 74 31" fill="none" xmlns="http://www.w3.org/2000/svg">
<path d="M34 3.67093H34.5V28.5549H34V3.67093Z" fill="#4447BA"/>
<path d="M42 16.5549C42.1844 17.2494 42.5485 17.4416 43.5 17.5549H53.5V21.0549H45V19.0549H42V22.5549C42.1571 23.637 42.5919 23.8422 43.5 24.0549H55C56.0495 23.743 56.4094 23.4665 56.5 22.5549V16.0549L55 14.5549H45V10.5549H53.5V12.5549H56.5V9.55489C56.5177 8.43863 56.3764 7.89667 55 7.55489H43.5C42.1801 7.73619 41.9886 8.28614 42 9.55489V16.5549Z" fill="#4447BA"/>
<path d="M58.5 7.55489V22.4222C58.7749 23.4865 59.2527 23.777 60.5 23.9222H71.5C72.804 23.7383 73.2064 23.383 73.5 22.4222V7.55489H70V20.8441L62 20.9222L61.9081 7.55489H58.5Z" fill="#4447BA"/>
<path d="M6.5 20.9412L16.0919 15.9273L6.5 9.93563V20.9412Z" fill="#7C8ABB"/>
<path d="M23.5 21.5549C23.9042 21.1262 23.9187 20.9038 23.5 20.5549L16.0919 15.9273L6.5 20.9412V28.5549C6.5 30 7 30.5 8.5 30.0549L23.5 21.5549Z" fill="#75C9BA"/>
<path d="M1 6.49999C0.502453 6.40948 0.280031 6.5082 0 6.99999L2.17557e-06 23.0549C0 24 0.5 24 1.5 23.5549C2.5 23.1098 6.5 20.9412 6.5 20.9412V9.93563L1 6.49999Z" fill="#FB7B70"/>
<path d="M23.5 11.0549C23.0201 10.6503 8.5 1.05487 8.5 1.05487C7.5 0.499992 6.5 0.999999 6.5 2.05487V9.93563L16.0919 15.9273L23.5 12C23.9573 11.665 23.9799 11.4595 23.5 11.0549Z" fill="#9597C7"/>
</svg>
